<svg width="107" height="89" fill="none" xmlns="http://www.w3.org/2000/svg"><g filter="url('#filter0_b_18_818')"><path d="M-.5 89c14.05 0 27.962-2.328 40.942-6.85 12.98-4.524 24.774-11.153 34.709-19.51 9.934-8.358 17.815-18.28 23.192-29.199 5.376-10.919 8.144-22.622 8.144-34.441H-.5v90Z" fill="url('#paint0_linear_18_818')" fill-opacity=".03"/></g><path d="M38.595 37.595c-.558-1.288-1.707-1.933-3.446-1.933H34.6v7.949h.549c1.344 0 2.337-.44 2.977-1.32.54-.752.809-1.707.809-2.868-.002-.69-.115-1.3-.34-1.828ZM29.177 37.69c.558 1.29 1.707 1.934 3.445 1.934h.55v-7.95h-.55c-1.344 0-2.336.44-2.976 1.32-.538.752-.807 1.708-.808 2.868 0 .69.113 1.3.338 1.829ZM20.043 18.98h7.303v2.105h-4.681v1.052h3.889v1.998h-3.89V25.2h4.682v2.105h-7.303v-8.326ZM31.018 18.969h9.45l-4.725 8.505-4.725-8.505Zm4.725 7.452 3.903-7.01h-7.792l3.889 7.01ZM44.241 18.979h7.303v2.105h-4.681v1.053h3.889v1.998h-3.89v1.064h4.682v2.106H44.24v-8.326ZM56.038 27.293v-8.324h.562l7 5.658V18.97h.533v8.326l-8.095-.002ZM71.782 27.305v-6.22h-3.789v-2.106h8.095v2.105H72.3v6.22h-.518ZM24.35 33.334c.633 0 1.137.08 1.512.239.43.174.791.447 1.041.786.25.339.379.73.37 1.128a1.76 1.76 0 0 1-.374 1.082 2.539 2.539 0 0 1-1.023.784c.52.152.975.426 1.31.79.35.358.538.806.534 1.267.004.403-.129.799-.382 1.143a2.617 2.617 0 0 1-1.015.82 3.05 3.05 0 0 1-.706.214c-.26.048-.605.072-1.037.072h-4.437v-8.325h4.206ZM41.238 41.055c-.754-.546-1.126-1.366-1.116-2.458h2.347c-.01.454.154.801.49 1.04.336.24.807.36 1.412.36.5 0 .893-.068 1.18-.204.289-.136.433-.343.433-.622 0-.231-.146-.399-.44-.502-.279-.1-.571-.175-.87-.222l-.534-.08c-.652-.1-1.293-.246-1.915-.438a3.422 3.422 0 0 1-1.354-.778c-.365-.35-.548-.813-.548-1.387 0-.574.183-1.063.548-1.466.364-.402.852-.703 1.462-.903a6.39 6.39 0 0 1 1.995-.299c.873 0 1.63.136 2.268.407.639.271 1.14.682 1.505 1.232.17.233.282.49.332.76.038.236.057.473.057.711h-2.348c0-.43-.139-.747-.417-.95-.279-.204-.71-.306-1.297-.306-.47 0-.835.068-1.094.204-.26.135-.39.319-.39.55 0 .255.174.443.52.562.424.14.863.248 1.31.323.864.144 1.539.281 2.024.413.489.134.924.376 1.26.7.355.335.533.805.533 1.411 0 .574-.192 1.069-.576 1.483-.384.415-.89.732-1.52.952a6.15 6.15 0 0 1-2.038.328c-1.392 0-2.465-.275-3.22-.82ZM54.497 41.66v-6.221h-3.788v-2.105h8.094v2.105h-3.788v6.22h-.518ZM61.526 33.334h7.303v2.105h-4.681v1.053h3.889v1.997h-3.89v1.065h4.682v2.105h-7.303v-8.325ZM79.646 41.66h-7.707v-8.326h3.904c.835 0 1.517.123 2.045.37.505.228.924.568 1.21.981.29.418.439.893.432 1.376.007.605-.237 1.195-.691 1.669-.435.476-1.048.819-1.743.975l2.55 2.954Zm-7.174-7.597v4.295h3.702l-3.702-4.295Zm0 7.154h6.165l-2.103-2.429-.446.012h-3.616v2.417Zm.375-7.44 3.918 4.545c.629-.105 1.194-.388 1.599-.802.415-.407.64-.925.633-1.46a1.994 1.994 0 0 0-.388-1.195 2.448 2.448 0 0 0-1.095-.826c-.423-.175-.975-.263-1.657-.263h-3.01Z" fill="#fff"/><defs><linearGradient id="paint0_linear_18_818" x1="125.606" y1="-34.878" x2="-22.677" y2="134.937" gradientUnits="userSpaceOnUse"><stop stop-color="#C4C4C4"/><stop offset="1" stop-color="#C4C4C4" stop-opacity="0"/></linearGradient><filter id="filter0_b_18_818" x="-30.5" y="-31" width="166.987" height="150" filterUnits="userSpaceOnUse" color-interpolation-filters="sRGB"><feFlood flood-opacity="0" result="BackgroundImageFix"/><feGaussianBlur in="BackgroundImage" stdDeviation="15"/><feComposite in2="SourceAlpha" operator="in" result="effect1_backgroundBlur_18_818"/><feBlend in="SourceGraphic" in2="effect1_backgroundBlur_18_818" result="shape"/></filter></defs></svg>