<svg width="107" height="89" viewBox="0 0 107 89" fill="none" xmlns="http://www.w3.org/2000/svg">
<g filter="url(#filter0_b_18_818)">
<path d="M-0.50013 89C13.5496 89 27.4617 86.6721 40.4419 82.1491C53.4221 77.6262 65.2163 70.9969 75.1509 62.6396C85.0855 54.2823 92.9661 44.3608 98.3427 33.4415C103.719 22.5222 106.487 10.819 106.487 -0.999992L-0.500126 -0.999982L-0.50013 89Z" fill="url(#paint0_linear_18_818)" fill-opacity="0.03"/>
</g>
<path d="M38.5953 37.5952C38.037 36.3065 36.8882 35.662 35.1489 35.6617H34.6001V43.611H35.1489C36.4933 43.611 37.4855 43.1709 38.1257 42.2908C38.6651 41.5395 38.9347 40.5836 38.9347 39.423C38.9335 38.7327 38.8203 38.1234 38.5953 37.5952Z" fill="white"/>
<path d="M29.1765 37.6906C29.7354 38.9793 30.884 39.6237 32.6224 39.6237H33.1712V31.6744H32.6224C31.2781 31.6744 30.2858 32.1145 29.6456 32.9947C29.1079 33.7456 28.8388 34.7015 28.8385 35.8624C28.8385 36.5519 28.9512 37.1613 29.1765 37.6906Z" fill="white"/>
<path d="M20.043 18.9793H27.3458V21.0847H22.6645V22.1373H26.5536V24.135H22.6645V25.1997H27.3458V27.305H20.043V18.9793Z" fill="white"/>
<path d="M31.0183 18.969H40.4673L35.7428 27.4741L31.0183 18.969ZM35.7428 26.4214L39.6463 19.4116H31.8537L35.7428 26.4214Z" fill="white"/>
<path d="M44.2411 18.9789H51.5439V21.0842H46.8626V22.1369H50.7517V24.1346H46.8626V25.1992H51.5439V27.3046H44.2411V18.9789Z" fill="white"/>
<path d="M56.0381 27.2926V18.969H56.5998L63.6002 24.6271V18.969H64.1331V27.2946L56.0381 27.2926Z" fill="white"/>
<path d="M71.7817 27.3046V21.0842H67.9934V18.9789H76.0884V21.0842H72.3002V27.3046H71.7817Z" fill="white"/>
<path d="M24.3493 33.3335C24.983 33.3335 25.4872 33.4132 25.8617 33.5727C26.292 33.7471 26.6534 34.0198 26.9034 34.3588C27.1535 34.6979 27.2818 35.0892 27.2733 35.4867C27.2759 35.8699 27.1459 36.2456 26.8988 36.5693C26.6476 36.9012 26.2947 37.1716 25.8761 37.3528C26.3958 37.505 26.8512 37.7793 27.1868 38.1423C27.5352 38.5013 27.7235 38.9492 27.7198 39.4103C27.7235 39.8132 27.5913 40.2089 27.3381 40.5527C27.0905 40.894 26.7406 41.1763 26.3226 41.3721C26.1007 41.471 25.8631 41.5435 25.6168 41.5874C25.3575 41.6352 25.0118 41.6591 24.5797 41.6591H20.1433V33.3335H24.3493Z" fill="white"/>
<path d="M41.2379 41.0551C40.4841 40.5088 40.112 39.6894 40.1216 38.5968H42.4695C42.4599 39.0514 42.6231 39.3983 42.9592 39.6375C43.2953 39.8768 43.7658 39.9964 44.3708 39.9964C44.8701 39.9964 45.2639 39.9286 45.5519 39.7931C45.84 39.6575 45.9841 39.4501 45.9841 39.171C45.9841 38.9398 45.8376 38.7723 45.5447 38.6686C45.265 38.5683 44.9727 38.4941 44.6733 38.4473C44.3852 38.4035 44.2076 38.3769 44.1403 38.3676C43.4878 38.2673 42.8468 38.1206 42.2246 37.929C41.7022 37.7677 41.2368 37.5004 40.8706 37.1514C40.5057 36.8005 40.3233 36.338 40.3233 35.7638C40.3233 35.1896 40.5057 34.7012 40.8706 34.2984C41.2355 33.8957 41.7229 33.5947 42.3326 33.3953C42.9689 33.1919 43.6458 33.0904 44.3276 33.0962C45.2014 33.0962 45.9576 33.2318 46.5962 33.503C47.2348 33.7741 47.7365 34.1848 48.1014 34.7351C48.2708 34.9678 48.3833 35.2259 48.4327 35.4947C48.4706 35.7306 48.4898 35.9684 48.4903 36.2064H46.1425C46.1425 35.7758 46.0033 35.4588 45.7248 35.2554C45.4463 35.0521 45.0142 34.9504 44.4284 34.9504C43.9579 34.9504 43.593 35.0182 43.3337 35.1537C43.0745 35.2893 42.9448 35.4727 42.9448 35.704C42.9448 35.9592 43.1177 36.1466 43.4634 36.2662C43.888 36.4056 44.3266 36.5137 44.7741 36.5892C45.6384 36.7327 46.3129 36.8703 46.7979 37.0019C47.2867 37.1357 47.7225 37.3776 48.0582 37.7017C48.4135 38.0366 48.5912 38.5071 48.5912 39.1132C48.5912 39.6874 48.3991 40.1818 48.015 40.5965C47.6309 41.0112 47.1244 41.3282 46.4954 41.5475C45.8495 41.7696 45.1563 41.8815 44.4572 41.8765C43.0649 41.8751 41.9918 41.6013 41.2379 41.0551Z" fill="white"/>
<path d="M54.4967 41.6591V35.4388H50.7085V33.3335H58.8035V35.4388H55.0153V41.6591H54.4967Z" fill="white"/>
<path d="M61.526 33.3335H68.8288V35.4388H64.1475V36.4915H68.0366V38.4892H64.1475V39.5538H68.8288V41.6591H61.526V33.3335Z" fill="white"/>
<path d="M79.6456 41.6591H71.9395V33.3335H75.8429C76.6784 33.3335 77.3601 33.4571 77.8883 33.7043C78.3929 33.9323 78.8117 34.2718 79.0982 34.6852C79.3875 35.1035 79.5367 35.5785 79.5303 36.0609C79.5371 36.6665 79.293 37.2557 78.839 37.7296C78.4038 38.2056 77.7908 38.5485 77.0961 38.7045L79.6456 41.6591ZM72.4724 34.0632V38.3576H76.1742L72.4724 34.0632ZM72.4724 41.2165H78.6373L76.5343 38.7882L76.0878 38.8002H72.4724V41.2165ZM72.8469 33.7761L76.7648 38.3217C77.3938 38.2173 77.9593 37.9338 78.3636 37.5202C78.7795 37.113 79.0045 36.5948 78.9974 36.0609C79.0032 35.64 78.8686 35.2259 78.6085 34.8647C78.3495 34.506 77.9686 34.2188 77.5138 34.0393C77.0913 33.8638 76.5391 33.7761 75.8573 33.7761H72.8469Z" fill="white"/>
<defs>
<filter id="filter0_b_18_818" x="-30.5001" y="-31" width="166.987" height="150" filterUnits="userSpaceOnUse" color-interpolation-filters="sRGB">
<feFlood flood-opacity="0" result="BackgroundImageFix"/>
<feGaussianBlur in="BackgroundImage" stdDeviation="15"/>
<feComposite in2="SourceAlpha" operator="in" result="effect1_backgroundBlur_18_818"/>
<feBlend mode="normal" in="SourceGraphic" in2="effect1_backgroundBlur_18_818" result="shape"/>
</filter>
<linearGradient id="paint0_linear_18_818" x1="125.606" y1="-34.8783" x2="-22.6766" y2="134.937" gradientUnits="userSpaceOnUse">
<stop stop-color="#C4C4C4"/>
<stop offset="1" stop-color="#C4C4C4" stop-opacity="0"/>
</linearGradient>
</defs>
</svg>
